# xmcd
#
# Track frame offsets:
#	150
#	16577
#	30360
#	42862
#
# Disc length: 836 seconds
#
# Revision: 1
# Processed by: cddbd v1.4PL0 Copyright (c) Steve Scherf et al.
# Submitted via: audiograbber 1.81.02
#
DISCID=1c034204
DTITLE=Kent Rose - Depot and Diner (A 4 Song Sampler)
DYEAR=2001
DGENRE=Country
TTITLE0=Blue California
TTITLE1=Women Keep Smashing up My Cars
TTITLE2=I Think About Falling
TTITLE3=Traveling Light
EXTD=
EXTT0=
EXTT1=
EXTT2=
EXTT3=
PLAYORDER=
